<?xml version="1.0" encoding="utf-8"?>
<!-- Generator: Adobe Illustrator 27.1.1, SVG Export Plug-In . SVG Version: 6.00 Build 0)  -->
<svg version="1.1" id="Layer_1" xmlns="http://www.w3.org/2000/svg" xmlns:xlink="http://www.w3.org/1999/xlink" x="0px" y="0px"
	 viewBox="0 0 1234.9 300" style="enable-background:new 0 0 1234.9 300;" xml:space="preserve">
<style type="text/css">
	.st0{fill:#FFFFFF;}
	.st1{fill:#E7392E;}
	.st2{fill-rule:evenodd;clip-rule:evenodd;fill:#78C1D2;}
	.st3{fill-rule:evenodd;clip-rule:evenodd;fill:#2D3441;}
	.st4{fill-rule:evenodd;clip-rule:evenodd;fill:#4ABAEC;}
	.st5{font-family:'Konnect-Regular';}
	.st6{font-size:38.0684px;}
	.st7{fill-rule:evenodd;clip-rule:evenodd;fill:#FB70A9;}
	.st8{fill:#FFFFFF;filter:url(#Adobe_OpacityMaskFilter);}
	.st9{mask:url(#a_00000107575787454111857970000016246619770520863926_);}
	.st10{fill:#4E56A6;}
	.st11{fill:#FFFFFF;filter:url(#Adobe_OpacityMaskFilter_00000092445947309648057890000007080710111917611164_);}
	.st12{mask:url(#b_00000069366623185099659620000001595253866461456015_);}
	.st13{fill-opacity:0.299;}
	.st14{fill-rule:evenodd;clip-rule:evenodd;fill:#E24CA6;}
	.st15{fill-rule:evenodd;clip-rule:evenodd;fill:#FFFFFF;}
	.st16{fill:#030776;}
</style>
<circle class="st0" cx="158.6" cy="150" r="140"/>
<circle class="st0" cx="464" cy="150" r="140"/>
<circle class="st0" cx="769.5" cy="150" r="140"/>
<circle class="st0" cx="1075" cy="150" r="140"/>
<path class="st1" d="M839.2,89.5c0,0.2,0.1,0.4,0.1,0.6v29.5c0,0.8-0.4,1.5-1.1,1.9l-24.8,14.3V164c0,0.8-0.4,1.5-1.1,1.9
	l-51.8,29.8c-0.1,0.1-0.2,0.1-0.4,0.2c0,0-0.1,0.1-0.2,0.1c-0.4,0.1-0.7,0.1-1.1,0c-0.1,0-0.1-0.1-0.2-0.1c-0.1,0-0.2-0.1-0.4-0.1
	l-51.7-29.8c-0.7-0.4-1.1-1.1-1.1-1.9V75.4c0-0.2,0-0.4,0.1-0.6c0-0.1,0-0.1,0.1-0.2c0-0.1,0.1-0.2,0.1-0.3c0-0.1,0.1-0.1,0.2-0.2
	c0.1-0.1,0.1-0.2,0.2-0.2c0.1-0.1,0.1-0.1,0.2-0.2c0.1-0.1,0.2-0.1,0.2-0.2l0,0l25.9-14.9c0.7-0.4,1.5-0.4,2.2,0l25.9,14.9h0
	c0.1,0.1,0.2,0.1,0.2,0.2c0.1,0.1,0.2,0.1,0.2,0.2c0.1,0.1,0.1,0.2,0.2,0.2c0,0.1,0.1,0.1,0.2,0.2c0.1,0.1,0.1,0.2,0.1,0.3
	c0,0.1,0.1,0.1,0.1,0.2c0,0.2,0.1,0.4,0.1,0.6v55.3l21.6-12.4V90c0-0.2,0-0.4,0.1-0.6c0-0.1,0-0.1,0.1-0.2c0-0.1,0.1-0.2,0.1-0.3
	c0-0.1,0.1-0.1,0.2-0.2c0.1-0.1,0.1-0.2,0.2-0.2c0.1-0.1,0.1-0.1,0.2-0.2c0.1-0.1,0.2-0.1,0.2-0.2l0,0l25.9-14.9
	c0.7-0.4,1.5-0.4,2.2,0l25.9,14.9c0.1,0.1,0.2,0.1,0.2,0.2c0.1,0.1,0.2,0.1,0.2,0.2c0.1,0.1,0.1,0.2,0.2,0.2c0,0.1,0.1,0.1,0.2,0.2
	c0.1,0.1,0.1,0.2,0.1,0.3C839.1,89.3,839.2,89.4,839.2,89.5L839.2,89.5z M835,118.3V93.8l-9,5.2l-12.5,7.2v24.6L835,118.3L835,118.3
	z M809.1,162.8v-24.6l-12.3,7l-35.1,20.1v24.8L809.1,162.8L809.1,162.8z M709.9,79.1v83.6l47.4,27.3v-24.8l-24.8-14l0,0l0,0
	c-0.1-0.1-0.2-0.1-0.2-0.2c-0.1-0.1-0.2-0.1-0.2-0.2l0,0c-0.1-0.1-0.1-0.1-0.2-0.2c0-0.1-0.1-0.1-0.2-0.2v0c0-0.1-0.1-0.2-0.1-0.3
	c0-0.1-0.1-0.2-0.1-0.2l0,0c0-0.1,0-0.2,0-0.3c0-0.1,0-0.2,0-0.2V91.5L719,84.3L709.9,79.1L709.9,79.1z M733.6,63l-21.5,12.4
	l21.5,12.4l21.5-12.4L733.6,63L733.6,63z M744.8,140.4l12.5-7.2V79.1l-9,5.2l-12.5,7.2v54.1L744.8,140.4z M811.2,77.6L789.7,90
	l21.5,12.4L832.8,90C832.8,90,811.2,77.6,811.2,77.6z M809.1,106.2L796.6,99l-9-5.2v24.6l12.5,7.2l9.1,5.2V106.2z M759.5,161.5
	l31.6-18.1l15.8-9l-21.5-12.4l-24.8,14.3l-22.6,13C738,149.4,759.5,161.5,759.5,161.5z"/>
<path class="st2" d="M515.7,86.5l41.3,41.1l-41.3,41.1l-41.3-41.1L515.7,86.5z"/>
<path class="st3" d="M412.4,86.5l85.6,85.3h-82.6l-44.3-44.1L412.4,86.5z"/>
<path class="st4" d="M153.6,63.7c-26.2,0-42.5,13.1-49,39.2c9.8-13.1,21.2-18,34.3-14.7c7.5,1.9,12.8,7.3,18.7,13.3
	c9.6,9.8,20.8,21.1,45.1,21.1c26.1,0,42.5-13.1,49-39.2c-9.8,13.1-21.2,18-34.3,14.7c-7.5-1.9-12.8-7.3-18.7-13.3
	C189,75,177.9,63.7,153.6,63.7z M104.5,122.5c-26.2,0-42.5,13.1-49,39.2c9.8-13.1,21.2-18,34.3-14.7c7.5,1.9,12.8,7.3,18.7,13.3
	c9.6,9.8,20.8,21.1,45.1,21.1c26.1,0,42.5-13.1,49-39.2c-9.8,13.1-21.2,18-34.3,14.7c-7.5-1.9-12.8-7.3-18.7-13.3
	C139.9,133.8,128.8,122.5,104.5,122.5z"/>
<text transform="matrix(1 0 0 1 82.99 240.6808)" class="st5 st6">T</text>
<text transform="matrix(1 0 0 1 100.1208 240.6808)" class="st5 st6">a</text>
<text transform="matrix(1 0 0 1 125.0173 240.6808)" class="st5 st6">i</text>
<text transform="matrix(1 0 0 1 133.8103 240.6808)" class="st5 st6">l</text>
<text transform="matrix(1 0 0 1 142.6038 240.6808)" class="st5 st6">w</text>
<text transform="matrix(1 0 0 1 176.9797 240.6808)" class="st5 st6">i</text>
<text transform="matrix(1 0 0 1 185.7727 240.6808)" class="st5 st6">n</text>
<text transform="matrix(1 0 0 1 209.2229 240.6808)" class="st5 st6">d</text>
<text transform="matrix(1 0 0 1 405.7132 240.6808)" class="st5 st6">Alpine</text>
<text transform="matrix(1 0 0 1 1000.6234 240.6808)" class="st5 st6">L</text>
<text transform="matrix(1 0 0 1 1018.4388 240.6808)" class="st5 st6">i</text>
<text transform="matrix(1 0 0 1 1027.2323 240.6808)" class="st5 st6">v</text>
<text transform="matrix(1 0 0 1 1047.7513 240.6808)" class="st5 st6">e</text>
<text transform="matrix(1 0 0 1 1070.2113 240.6808)" class="st5 st6">w</text>
<text transform="matrix(1 0 0 1 1104.5873 240.6808)" class="st5 st6">i</text>
<text transform="matrix(1 0 0 1 1113.3807 240.6808)" class="st5 st6">r</text>
<text transform="matrix(1 0 0 1 1125.7909 240.6808)" class="st5 st6">e</text>
<text transform="matrix(1 0 0 1 703.3298 240.6808)" class="st5 st6">L</text>
<text transform="matrix(1 0 0 1 720.6125 240.6808)" class="st5 st6">a</text>
<text transform="matrix(1 0 0 1 745.509 240.6808)" class="st5 st6">r</text>
<text transform="matrix(1 0 0 1 757.9196 240.6808)" class="st5 st6">a</text>
<text transform="matrix(1 0 0 1 782.8161 240.6808)" class="st5 st6">v</text>
<text transform="matrix(1 0 0 1 803.3351 240.6808)" class="st5 st6">e</text>
<text transform="matrix(1 0 0 1 826.8986 240.6808)" class="st5 st6">l</text>
<path class="st7" d="M1138.4,144.7c-2.6,3.9-4.5,8.7-9.8,8.7c-8.8,0-9.3-13.6-18.1-13.6c-8.8,0-8.3,13.6-17.2,13.6
	c-8.8,0-9.3-13.6-18.1-13.6c-8.8,0-8.3,13.6-17.2,13.6s-9.3-13.6-18.1-13.6c-8.8,0-8.3,13.6-17.2,13.6c-2.8,0-4.7-1.3-6.4-3.2
	c-6.3-11-9.9-23.9-9.9-37.6c0-40.3,31.1-73,69.5-73s69.5,32.7,69.5,73C1145.5,124.1,1143,135,1138.4,144.7L1138.4,144.7z"/>
<defs>
	<filter id="Adobe_OpacityMaskFilter" filterUnits="userSpaceOnUse" x="1028.6" y="124.9" width="91.6" height="72.8">
		<feColorMatrix  type="matrix" values="1 0 0 0 0  0 1 0 0 0  0 0 1 0 0  0 0 0 1 0"/>
	</filter>
</defs>
<mask maskUnits="userSpaceOnUse" x="1028.6" y="124.9" width="91.6" height="72.8" id="a_00000107575787454111857970000016246619770520863926_">
	<path class="st8" d="M1048.2,137.5v30.2c0,5.4-4.4,9.8-9.8,9.8c-5.4,0-9.8-4.4-9.8-9.8v-36.5c1.8-3.4,3.9-6.3,7.7-6.3
		C1042.4,124.9,1044.6,132.6,1048.2,137.5L1048.2,137.5z M1085.3,139v47.8c0,6-4.9,10.9-10.9,10.9c-6,0-10.9-4.9-10.9-10.9v-54.1
		c2.1-4,4.2-7.8,8.5-7.8C1078.9,124.9,1080.8,134.6,1085.3,139z M1120.2,138.2v34.7c0,5.4-4.4,9.8-9.8,9.8c-5.4,0-9.8-4.4-9.8-9.8
		v-42.6c1.7-2.9,3.7-5.3,7.1-5.3C1114.2,124.9,1116.2,133.4,1120.2,138.2L1120.2,138.2z"/>
</mask>
<g class="st9">
	<path class="st10" d="M1048.2,137.5v30.2c0,5.4-4.4,9.8-9.8,9.8c-5.4,0-9.8-4.4-9.8-9.8v-36.5c1.8-3.4,3.9-6.3,7.7-6.3
		C1042.4,124.9,1044.6,132.6,1048.2,137.5L1048.2,137.5z M1085.3,139v47.8c0,6-4.9,10.9-10.9,10.9c-6,0-10.9-4.9-10.9-10.9v-54.1
		c2.1-4,4.2-7.8,8.5-7.8C1078.9,124.9,1080.8,134.6,1085.3,139z M1120.2,138.2v34.7c0,5.4-4.4,9.8-9.8,9.8c-5.4,0-9.8-4.4-9.8-9.8
		v-42.6c1.7-2.9,3.7-5.3,7.1-5.3C1114.2,124.9,1116.2,133.4,1120.2,138.2L1120.2,138.2z"/>
</g>
<defs>
	
		<filter id="Adobe_OpacityMaskFilter_00000108998050890386726630000007449635977775839112_" filterUnits="userSpaceOnUse" x="1028.6" y="107.6" width="91.6" height="49.5">
		<feColorMatrix  type="matrix" values="1 0 0 0 0  0 1 0 0 0  0 0 1 0 0  0 0 0 1 0"/>
	</filter>
</defs>
<mask maskUnits="userSpaceOnUse" x="1028.6" y="107.6" width="91.6" height="49.5" id="b_00000069366623185099659620000001595253866461456015_">
	<path style="fill:#FFFFFF;filter:url(#Adobe_OpacityMaskFilter_00000108998050890386726630000007449635977775839112_);" d="
		M1048.2,146.7c-1.7-2.1-3.8-3.7-6.8-3.7c-7.1,0-8.4,8.9-12.9,12.9v-38.5c0-5.4,4.4-9.8,9.8-9.8c5.4,0,9.8,4.4,9.8,9.8
		C1048.2,117.5,1048.2,146.7,1048.2,146.7z M1085.3,147.4c-1.9-2.5-4-4.4-7.3-4.4c-7.9,0-8.6,11-14.5,14.1v-17
		c0-6,4.9-10.9,10.9-10.9c6,0,10.9,4.9,10.9,10.9V147.4z M1120.2,145.5c-1.5-1.5-3.3-2.5-5.7-2.5c-7.6,0-8.5,10.4-14,13.8v-34.5
		c0-5.4,4.4-9.8,9.8-9.8c5.4,0,9.8,4.4,9.8,9.8V145.5L1120.2,145.5z"/>
</mask>
<g class="st12">
	<path class="st13" d="M1048.2,146.7c-1.7-2.1-3.8-3.7-6.8-3.7c-7.1,0-8.4,8.9-12.9,12.9v-38.5c0-5.4,4.4-9.8,9.8-9.8
		c5.4,0,9.8,4.4,9.8,9.8C1048.2,117.5,1048.2,146.7,1048.2,146.7z M1085.3,147.4c-1.9-2.5-4-4.4-7.3-4.4c-7.9,0-8.6,11-14.5,14.1
		v-17c0-6,4.9-10.9,10.9-10.9c6,0,10.9,4.9,10.9,10.9V147.4z M1120.2,145.5c-1.5-1.5-3.3-2.5-5.7-2.5c-7.6,0-8.5,10.4-14,13.8v-34.5
		c0-5.4,4.4-9.8,9.8-9.8c5.4,0,9.8,4.4,9.8,9.8V145.5L1120.2,145.5z"/>
</g>
<path class="st7" d="M1138.4,144.7c-2.6,3.9-4.5,8.7-9.8,8.7c-8.8,0-9.3-13.6-18.1-13.6c-8.8,0-8.3,13.6-17.2,13.6
	c-8.8,0-9.3-13.6-18.1-13.6c-8.8,0-8.3,13.6-17.2,13.6s-9.3-13.6-18.1-13.6c-8.8,0-8.3,13.6-17.2,13.6c-2.8,0-4.7-1.3-6.4-3.2
	c-6.3-11-9.9-23.9-9.9-37.6c0-40.3,31.1-73,69.5-73s69.5,32.7,69.5,73C1145.5,124.1,1143,135,1138.4,144.7L1138.4,144.7z"/>
<path class="st14" d="M1123.4,151.9c18.2-27.1,18.7-57.2,1.4-90.2c12.8,13.1,20.7,31.1,20.7,51c0,11.5-2.6,22.3-7.3,32
	c-2.7,3.9-4.7,8.7-10.1,8.7C1126.2,153.4,1124.7,152.8,1123.4,151.9z"/>
<path class="st15" d="M1072.3,130.8c24.2,0,34.4-14,34.4-33.9s-15.4-38.3-34.4-38.3c-19,0-34.4,18.3-34.4,38.3
	S1048.1,130.8,1072.3,130.8z"/>
<path class="st16" d="M1063,97.9c7.1,0,12.9-6.4,12.9-14.2c0-7.9-5.8-14.2-12.9-14.2s-12.9,6.4-12.9,14.2
	C1050.1,91.6,1055.9,97.9,1063,97.9z"/>
<path class="st0" d="M1060.9,87c3.6,0,6.4-2.9,6.4-6.6c0-3.6-2.9-6.6-6.4-6.6c-3.6,0-6.4,2.9-6.4,6.6
	C1054.4,84.1,1057.3,87,1060.9,87L1060.9,87z"/>
</svg>
