<?xml version="1.0" encoding="utf-8"?>
<!-- Generator: Adobe Illustrator 27.1.1, SVG Export Plug-In . SVG Version: 6.00 Build 0)  -->
<svg version="1.2" baseProfile="tiny" id="Layer_1" xmlns="http://www.w3.org/2000/svg" xmlns:xlink="http://www.w3.org/1999/xlink"
	 x="0px" y="0px" viewBox="0 0 1234.94 300" overflow="visible" xml:space="preserve">
<circle fill="#FFFFFF" cx="158.55" cy="150" r="140"/>
<circle fill="#FFFFFF" cx="464.03" cy="150" r="140"/>
<circle fill="#FFFFFF" cx="769.51" cy="150" r="140"/>
<circle fill="#FFFFFF" cx="1074.99" cy="150" r="140"/>
<g>
	<path fill-rule="evenodd" fill="#ED70A7" d="M1137.43,144.41c-2.58,3.9-4.54,8.7-9.78,8.7c-8.82,0-9.3-13.6-18.12-13.6
		s-8.35,13.6-17.17,13.6c-8.82,0-9.3-13.6-18.12-13.6c-8.82,0-8.35,13.6-17.17,13.6c-8.82,0-9.3-13.6-18.12-13.6
		c-8.82,0-8.35,13.6-17.17,13.6c-2.77,0-4.72-1.34-6.36-3.19c-6.31-10.98-9.94-23.85-9.94-37.62c0-40.29,31.12-72.95,69.51-72.95
		s69.51,32.66,69.51,72.95C1144.5,123.83,1141.96,134.73,1137.43,144.41L1137.43,144.41z"/>
	<image width="383" height="305" xlink:href="E0AA5402E3B0FCC1.png"  transform="matrix(0.24 0 0 0.24 1027.3907 124.44)">
	</image>
	<image width="383" height="207" xlink:href="E0AA5402E3B0FCC3.png"  transform="matrix(0.24 0 0 0.24 1027.3907 107.4)">
	</image>
	<path fill-rule="evenodd" fill="#ED70A7" d="M1137.43,144.41c-2.58,3.9-4.54,8.7-9.78,8.7c-8.82,0-9.3-13.6-18.12-13.6
		s-8.35,13.6-17.17,13.6c-8.82,0-9.3-13.6-18.12-13.6c-8.82,0-8.35,13.6-17.17,13.6c-8.82,0-9.3-13.6-18.12-13.6
		c-8.82,0-8.35,13.6-17.17,13.6c-2.77,0-4.72-1.34-6.36-3.19c-6.31-10.98-9.94-23.85-9.94-37.62c0-40.29,31.12-72.95,69.51-72.95
		s69.51,32.66,69.51,72.95C1144.5,123.83,1141.96,134.73,1137.43,144.41L1137.43,144.41z"/>
	<path fill-rule="evenodd" fill="#D45299" d="M1122.39,151.66c18.22-27.1,18.69-57.16,1.41-90.18
		c12.81,13.12,20.71,31.12,20.71,50.98c0,11.48-2.64,22.33-7.33,31.98c-2.67,3.88-4.7,8.67-10.13,8.67
		C1125.18,153.11,1123.67,152.55,1122.39,151.66z"/>
	<path fill-rule="evenodd" fill="#FFFFFF" d="M1071.26,130.51c24.17,0,34.35-14.02,34.35-33.94s-15.38-38.25-34.35-38.25
		c-18.97,0-34.35,18.33-34.35,38.25S1047.09,130.51,1071.26,130.51z"/>
	<path fill="#272D64" d="M1062.03,97.7c7.11,0,12.88-6.37,12.88-14.22c0-7.85-5.77-14.22-12.88-14.22s-12.88,6.37-12.88,14.22
		C1049.14,91.33,1054.91,97.7,1062.03,97.7z"/>
	<path fill="#FFFFFF" d="M1059.88,86.76c3.56,0,6.44-2.94,6.44-6.56c0-3.63-2.88-6.56-6.44-6.56c-3.56,0-6.44,2.94-6.44,6.56
		C1053.44,83.82,1056.32,86.76,1059.88,86.76L1059.88,86.76z"/>
</g>
<path fill="#E7392E" d="M839.19,89.47c0.05,0.18,0.07,0.37,0.08,0.56v29.54c0,0.77-0.41,1.48-1.08,1.87l-24.79,14.27v28.29
	c0,0.77-0.41,1.48-1.08,1.87l-51.75,29.79c-0.12,0.07-0.25,0.11-0.38,0.16c-0.05,0.02-0.09,0.05-0.15,0.06
	c-0.36,0.09-0.74,0.09-1.1,0c-0.06-0.02-0.11-0.05-0.17-0.07c-0.12-0.04-0.24-0.08-0.36-0.15l-51.74-29.79
	c-0.67-0.38-1.08-1.1-1.08-1.87V75.39c0-0.19,0.03-0.38,0.08-0.56c0.02-0.06,0.05-0.12,0.08-0.18c0.04-0.11,0.08-0.23,0.14-0.33
	c0.04-0.07,0.1-0.13,0.15-0.19c0.06-0.09,0.12-0.18,0.19-0.25c0.06-0.06,0.14-0.11,0.21-0.16c0.08-0.06,0.15-0.13,0.24-0.19h0
	l25.87-14.9c0.67-0.38,1.49-0.38,2.15,0l25.87,14.9h0.01c0.09,0.05,0.16,0.12,0.24,0.18c0.07,0.05,0.15,0.1,0.21,0.16
	c0.08,0.08,0.13,0.17,0.19,0.25c0.05,0.06,0.11,0.12,0.15,0.19c0.06,0.11,0.1,0.22,0.14,0.33c0.02,0.06,0.06,0.12,0.08,0.18
	c0.05,0.18,0.07,0.37,0.07,0.56v55.35l21.56-12.41V90.03c0-0.19,0.03-0.38,0.07-0.56c0.02-0.06,0.05-0.12,0.08-0.18
	c0.04-0.11,0.08-0.23,0.14-0.33c0.04-0.07,0.1-0.13,0.15-0.19c0.06-0.09,0.12-0.18,0.19-0.25c0.06-0.06,0.14-0.11,0.21-0.16
	c0.08-0.06,0.15-0.14,0.24-0.19h0l25.87-14.9c0.67-0.38,1.49-0.38,2.15,0l25.87,14.9c0.09,0.05,0.16,0.12,0.24,0.18
	c0.07,0.05,0.15,0.1,0.21,0.16c0.08,0.08,0.13,0.17,0.19,0.25c0.05,0.06,0.11,0.12,0.15,0.19c0.06,0.1,0.1,0.22,0.14,0.33
	C839.14,89.35,839.17,89.41,839.19,89.47L839.19,89.47z M834.95,118.32V93.76l-9.05,5.21l-12.51,7.2v24.56L834.95,118.32
	L834.95,118.32z M809.08,162.76v-24.58l-12.3,7.03l-35.13,20.05v24.81L809.08,162.76L809.08,162.76z M709.91,79.12v83.64
	l47.43,27.31v-24.81l-24.78-14.02l-0.01-0.01l-0.01-0.01c-0.08-0.05-0.15-0.12-0.23-0.18c-0.07-0.05-0.15-0.1-0.2-0.16l-0.01-0.01
	c-0.07-0.07-0.12-0.15-0.18-0.23c-0.05-0.07-0.12-0.13-0.16-0.21l0-0.01c-0.05-0.08-0.08-0.18-0.11-0.27
	c-0.03-0.08-0.08-0.16-0.1-0.24v0c-0.03-0.1-0.03-0.21-0.04-0.31c-0.01-0.08-0.03-0.16-0.03-0.24V91.53l-12.5-7.2L709.91,79.12
	C709.91,79.12,709.91,79.12,709.91,79.12z M733.63,62.98l-21.55,12.41l21.55,12.41l21.55-12.41L733.63,62.98L733.63,62.98z
	 M744.84,140.42l12.5-7.2v-54.1l-9.05,5.21l-12.51,7.2v54.1C735.78,145.63,744.84,140.42,744.84,140.42z M811.24,77.63l-21.55,12.41
	l21.55,12.41l21.55-12.41C832.79,90.03,811.24,77.63,811.24,77.63z M809.08,106.18l-12.51-7.2l-9.05-5.21v24.56l12.5,7.2l9.06,5.21
	V106.18z M759.49,161.53l31.61-18.05l15.8-9.02l-21.54-12.4l-24.79,14.28l-22.6,13.01C737.98,149.35,759.49,161.53,759.49,161.53z"
	/>
<path fill-rule="evenodd" fill="#78C1D2" d="M515.67,86.51l41.31,41.13l-41.31,41.13l-41.31-41.13L515.67,86.51z"/>
<path fill-rule="evenodd" fill="#2D3441" d="M412.4,86.51l85.64,85.26h-82.62l-44.33-44.14L412.4,86.51z"/>
<path fill-rule="evenodd" fill="#4ABAEC" d="M153.55,63.67c-26.15,0-42.5,13.08-49.04,39.23c9.81-13.08,21.25-17.98,34.33-14.71
	c7.46,1.86,12.79,7.28,18.7,13.27c9.62,9.76,20.75,21.06,45.05,21.06c26.15,0,42.5-13.08,49.04-39.23
	c-9.81,13.08-21.25,17.98-34.33,14.71c-7.46-1.86-12.79-7.28-18.7-13.27C188.99,74.97,177.86,63.67,153.55,63.67z M104.52,122.52
	c-26.15,0-42.5,13.08-49.04,39.23c9.81-13.08,21.25-17.98,34.33-14.71c7.46,1.87,12.79,7.28,18.7,13.27
	c9.62,9.76,20.75,21.06,45.05,21.06c26.15,0,42.5-13.08,49.04-39.23c-9.81,13.08-21.25,17.98-34.33,14.71
	c-7.46-1.86-12.79-7.28-18.7-13.27C139.95,133.82,128.82,122.52,104.52,122.52z"/>
<text transform="matrix(1 0 0 1 82.99 240.6808)" font-family="'Konnect-Regular'" font-size="38.0684px">T</text>
<text transform="matrix(1 0 0 1 100.1208 240.6808)" font-family="'Konnect-Regular'" font-size="38.0684px">a</text>
<text transform="matrix(1 0 0 1 125.0173 240.6808)" font-family="'Konnect-Regular'" font-size="38.0684px">i</text>
<text transform="matrix(1 0 0 1 133.8103 240.6808)" font-family="'Konnect-Regular'" font-size="38.0684px">l</text>
<text transform="matrix(1 0 0 1 142.6038 240.6808)" font-family="'Konnect-Regular'" font-size="38.0684px">w</text>
<text transform="matrix(1 0 0 1 176.9797 240.6808)" font-family="'Konnect-Regular'" font-size="38.0684px">i</text>
<text transform="matrix(1 0 0 1 185.7727 240.6808)" font-family="'Konnect-Regular'" font-size="38.0684px">n</text>
<text transform="matrix(1 0 0 1 209.2229 240.6808)" font-family="'Konnect-Regular'" font-size="38.0684px">d</text>
<text transform="matrix(1 0 0 1 405.7132 240.6808)" font-family="'Konnect-Regular'" font-size="38.0684px">Alpine</text>
<text transform="matrix(1 0 0 1 1000.6234 240.6808)" font-family="'Konnect-Regular'" font-size="38.0684px">L</text>
<text transform="matrix(1 0 0 1 1018.4388 240.6808)" font-family="'Konnect-Regular'" font-size="38.0684px">i</text>
<text transform="matrix(1 0 0 1 1027.2323 240.6808)" font-family="'Konnect-Regular'" font-size="38.0684px">v</text>
<text transform="matrix(1 0 0 1 1047.7513 240.6808)" font-family="'Konnect-Regular'" font-size="38.0684px">e</text>
<text transform="matrix(1 0 0 1 1070.2113 240.6808)" font-family="'Konnect-Regular'" font-size="38.0684px">w</text>
<text transform="matrix(1 0 0 1 1104.5873 240.6808)" font-family="'Konnect-Regular'" font-size="38.0684px">i</text>
<text transform="matrix(1 0 0 1 1113.3807 240.6808)" font-family="'Konnect-Regular'" font-size="38.0684px">r</text>
<text transform="matrix(1 0 0 1 1125.7909 240.6808)" font-family="'Konnect-Regular'" font-size="38.0684px">e</text>
<text transform="matrix(1 0 0 1 703.3298 240.6808)" font-family="'Konnect-Regular'" font-size="38.0684px">L</text>
<text transform="matrix(1 0 0 1 720.6125 240.6808)" font-family="'Konnect-Regular'" font-size="38.0684px">a</text>
<text transform="matrix(1 0 0 1 745.509 240.6808)" font-family="'Konnect-Regular'" font-size="38.0684px">r</text>
<text transform="matrix(1 0 0 1 757.9196 240.6808)" font-family="'Konnect-Regular'" font-size="38.0684px">a</text>
<text transform="matrix(1 0 0 1 782.8161 240.6808)" font-family="'Konnect-Regular'" font-size="38.0684px">v</text>
<text transform="matrix(1 0 0 1 803.3351 240.6808)" font-family="'Konnect-Regular'" font-size="38.0684px">e</text>
<text transform="matrix(1 0 0 1 826.8986 240.6808)" font-family="'Konnect-Regular'" font-size="38.0684px">l</text>
</svg>
